<mxfile host="app.diagrams.net" modified="2023-07-27T14:02:10.892Z" agent="Mozilla/5.0 (Windows NT 10.0; Win64; x64) AppleWebKit/537.36 (KHTML, like Gecko) Chrome/114.0.0.0 Safari/537.36" etag="baYt0ex9FFAEo1ajpiEE" version="21.6.5" type="device">
  <diagram name="Page-1" id="N1PWpOYF_NwT9EttTJVK">
    <mxGraphModel dx="1034" dy="1631" grid="1" gridSize="10" guides="1" tooltips="1" connect="1" arrows="1" fold="1" page="1" pageScale="1" pageWidth="827" pageHeight="1169" math="0" shadow="0">
      <root>
        <mxCell id="0" />
        <mxCell id="1" parent="0" />
        <mxCell id="jkE0oHId3iBi0sYZpcI9-1" value="&lt;font style=&quot;font-size: 20px;&quot;&gt;Event Storming Bibliotheque&lt;/font&gt;" style="rounded=0;whiteSpace=wrap;html=1;fillColor=#bac8d3;strokeColor=#23445d;" vertex="1" parent="1">
          <mxGeometry x="40" y="-1139" width="960" height="40" as="geometry" />
        </mxCell>
        <mxCell id="jkE0oHId3iBi0sYZpcI9-2" value="Authentification effectuée" style="whiteSpace=wrap;html=1;aspect=fixed;fillColor=#ffcc99;shadow=0;strokeColor=#36393d;" vertex="1" parent="1">
          <mxGeometry x="665" y="-990" width="80" height="80" as="geometry" />
        </mxCell>
        <mxCell id="jkE0oHId3iBi0sYZpcI9-3" value="" style="edgeStyle=orthogonalEdgeStyle;rounded=0;orthogonalLoop=1;jettySize=auto;html=1;" edge="1" parent="1" source="jkE0oHId3iBi0sYZpcI9-4" target="jkE0oHId3iBi0sYZpcI9-2">
          <mxGeometry relative="1" as="geometry" />
        </mxCell>
        <mxCell id="jkE0oHId3iBi0sYZpcI9-4" value="Se connecter" style="whiteSpace=wrap;html=1;aspect=fixed;fillColor=#cce5ff;strokeColor=#36393d;" vertex="1" parent="1">
          <mxGeometry x="545" y="-990" width="80" height="80" as="geometry" />
        </mxCell>
        <mxCell id="jkE0oHId3iBi0sYZpcI9-5" value="" style="edgeStyle=orthogonalEdgeStyle;rounded=0;orthogonalLoop=1;jettySize=auto;html=1;" edge="1" parent="1" source="jkE0oHId3iBi0sYZpcI9-7" target="jkE0oHId3iBi0sYZpcI9-4">
          <mxGeometry relative="1" as="geometry" />
        </mxCell>
        <mxCell id="jkE0oHId3iBi0sYZpcI9-6" style="edgeStyle=orthogonalEdgeStyle;rounded=0;orthogonalLoop=1;jettySize=auto;html=1;entryX=0;entryY=0.629;entryDx=0;entryDy=0;entryPerimeter=0;" edge="1" parent="1" source="jkE0oHId3iBi0sYZpcI9-7" target="jkE0oHId3iBi0sYZpcI9-14">
          <mxGeometry relative="1" as="geometry" />
        </mxCell>
        <mxCell id="jkE0oHId3iBi0sYZpcI9-7" value="Etre membre ou admin ?" style="whiteSpace=wrap;html=1;aspect=fixed;fillColor=#e6d0de;gradientColor=#d5739d;strokeColor=#996185;" vertex="1" parent="1">
          <mxGeometry x="425" y="-990" width="80" height="80" as="geometry" />
        </mxCell>
        <mxCell id="jkE0oHId3iBi0sYZpcI9-8" value="" style="edgeStyle=orthogonalEdgeStyle;rounded=0;orthogonalLoop=1;jettySize=auto;html=1;entryX=0;entryY=0.5;entryDx=0;entryDy=0;" edge="1" parent="1" source="jkE0oHId3iBi0sYZpcI9-9" target="jkE0oHId3iBi0sYZpcI9-7">
          <mxGeometry relative="1" as="geometry">
            <mxPoint x="415" y="-950" as="targetPoint" />
          </mxGeometry>
        </mxCell>
        <mxCell id="jkE0oHId3iBi0sYZpcI9-9" value="Formulaire de connexion" style="whiteSpace=wrap;html=1;aspect=fixed;fillColor=#d5e8d4;strokeColor=#82b366;" vertex="1" parent="1">
          <mxGeometry x="295" y="-990" width="80" height="80" as="geometry" />
        </mxCell>
        <mxCell id="jkE0oHId3iBi0sYZpcI9-10" value="Authentification" style="rounded=0;whiteSpace=wrap;html=1;fillColor=#fff2cc;strokeColor=#d6b656;" vertex="1" parent="1">
          <mxGeometry x="420" y="-1080" width="210" height="60" as="geometry" />
        </mxCell>
        <mxCell id="jkE0oHId3iBi0sYZpcI9-11" value="Utilisateur" style="whiteSpace=wrap;html=1;aspect=fixed;fillColor=#ffff88;strokeColor=#36393d;" vertex="1" parent="1">
          <mxGeometry x="395" y="-930" width="60" height="60" as="geometry" />
        </mxCell>
        <mxCell id="jkE0oHId3iBi0sYZpcI9-12" value="Oui" style="text;html=1;align=center;verticalAlign=middle;resizable=0;points=[];autosize=1;strokeColor=none;fillColor=none;" vertex="1" parent="1">
          <mxGeometry x="504" y="-981" width="40" height="30" as="geometry" />
        </mxCell>
        <mxCell id="jkE0oHId3iBi0sYZpcI9-13" style="edgeStyle=orthogonalEdgeStyle;rounded=0;orthogonalLoop=1;jettySize=auto;html=1;entryX=0.5;entryY=1;entryDx=0;entryDy=0;" edge="1" parent="1" source="jkE0oHId3iBi0sYZpcI9-14" target="jkE0oHId3iBi0sYZpcI9-4">
          <mxGeometry relative="1" as="geometry">
            <mxPoint x="595" y="-900" as="targetPoint" />
            <Array as="points">
              <mxPoint x="585" y="-840" />
            </Array>
          </mxGeometry>
        </mxCell>
        <mxCell id="jkE0oHId3iBi0sYZpcI9-14" value="S&#39;inscrire" style="whiteSpace=wrap;html=1;aspect=fixed;fillColor=#cce5ff;strokeColor=#36393d;" vertex="1" parent="1">
          <mxGeometry x="485" y="-890" width="80" height="80" as="geometry" />
        </mxCell>
        <mxCell id="jkE0oHId3iBi0sYZpcI9-15" value="Non" style="text;html=1;align=center;verticalAlign=middle;resizable=0;points=[];autosize=1;strokeColor=none;fillColor=none;" vertex="1" parent="1">
          <mxGeometry x="460" y="-913" width="50" height="30" as="geometry" />
        </mxCell>
        <mxCell id="jkE0oHId3iBi0sYZpcI9-16" value="Informations livre consulté" style="whiteSpace=wrap;html=1;aspect=fixed;fillColor=#ffcc99;shadow=0;strokeColor=#36393d;" vertex="1" parent="1">
          <mxGeometry x="840" y="-690" width="80" height="80" as="geometry" />
        </mxCell>
        <mxCell id="jkE0oHId3iBi0sYZpcI9-45" value="" style="edgeStyle=orthogonalEdgeStyle;rounded=0;orthogonalLoop=1;jettySize=auto;html=1;" edge="1" parent="1" source="jkE0oHId3iBi0sYZpcI9-18" target="jkE0oHId3iBi0sYZpcI9-43">
          <mxGeometry relative="1" as="geometry" />
        </mxCell>
        <mxCell id="jkE0oHId3iBi0sYZpcI9-54" style="edgeStyle=orthogonalEdgeStyle;rounded=0;orthogonalLoop=1;jettySize=auto;html=1;entryX=0;entryY=0.5;entryDx=0;entryDy=0;" edge="1" parent="1" source="jkE0oHId3iBi0sYZpcI9-18" target="jkE0oHId3iBi0sYZpcI9-50">
          <mxGeometry relative="1" as="geometry">
            <Array as="points">
              <mxPoint x="425" y="-550" />
            </Array>
          </mxGeometry>
        </mxCell>
        <mxCell id="jkE0oHId3iBi0sYZpcI9-18" value="Rechercher un livre" style="whiteSpace=wrap;html=1;aspect=fixed;fillColor=#cce5ff;strokeColor=#36393d;" vertex="1" parent="1">
          <mxGeometry x="385" y="-690" width="80" height="80" as="geometry" />
        </mxCell>
        <mxCell id="jkE0oHId3iBi0sYZpcI9-44" value="" style="edgeStyle=orthogonalEdgeStyle;rounded=0;orthogonalLoop=1;jettySize=auto;html=1;" edge="1" parent="1" source="jkE0oHId3iBi0sYZpcI9-28" target="jkE0oHId3iBi0sYZpcI9-18">
          <mxGeometry relative="1" as="geometry" />
        </mxCell>
        <mxCell id="jkE0oHId3iBi0sYZpcI9-28" value="Etre connecté" style="whiteSpace=wrap;html=1;aspect=fixed;fillColor=#e6d0de;gradientColor=#d5739d;strokeColor=#996185;" vertex="1" parent="1">
          <mxGeometry x="260" y="-690" width="80" height="80" as="geometry" />
        </mxCell>
        <mxCell id="jkE0oHId3iBi0sYZpcI9-32" style="edgeStyle=orthogonalEdgeStyle;rounded=0;orthogonalLoop=1;jettySize=auto;html=1;entryX=0;entryY=0.5;entryDx=0;entryDy=0;" edge="1" parent="1" source="jkE0oHId3iBi0sYZpcI9-33" target="jkE0oHId3iBi0sYZpcI9-28">
          <mxGeometry relative="1" as="geometry" />
        </mxCell>
        <mxCell id="jkE0oHId3iBi0sYZpcI9-33" value="Liste des rubriques" style="whiteSpace=wrap;html=1;aspect=fixed;fillColor=#d5e8d4;strokeColor=#82b366;" vertex="1" parent="1">
          <mxGeometry x="120" y="-690" width="80" height="80" as="geometry" />
        </mxCell>
        <mxCell id="jkE0oHId3iBi0sYZpcI9-74" value="" style="edgeStyle=orthogonalEdgeStyle;rounded=0;orthogonalLoop=1;jettySize=auto;html=1;" edge="1" parent="1" source="jkE0oHId3iBi0sYZpcI9-35" target="jkE0oHId3iBi0sYZpcI9-72">
          <mxGeometry relative="1" as="geometry" />
        </mxCell>
        <mxCell id="jkE0oHId3iBi0sYZpcI9-35" value="Sélectionner un livre" style="whiteSpace=wrap;html=1;aspect=fixed;fillColor=#cce5ff;strokeColor=#36393d;" vertex="1" parent="1">
          <mxGeometry x="615" y="-690" width="80" height="80" as="geometry" />
        </mxCell>
        <mxCell id="jkE0oHId3iBi0sYZpcI9-36" value="Admin" style="whiteSpace=wrap;html=1;aspect=fixed;fillColor=#ffff88;strokeColor=#36393d;" vertex="1" parent="1">
          <mxGeometry x="230" y="-630" width="60" height="60" as="geometry" />
        </mxCell>
        <mxCell id="jkE0oHId3iBi0sYZpcI9-42" style="edgeStyle=orthogonalEdgeStyle;rounded=0;orthogonalLoop=1;jettySize=auto;html=1;entryX=0;entryY=0.5;entryDx=0;entryDy=0;" edge="1" parent="1" source="jkE0oHId3iBi0sYZpcI9-43" target="jkE0oHId3iBi0sYZpcI9-35">
          <mxGeometry relative="1" as="geometry" />
        </mxCell>
        <mxCell id="jkE0oHId3iBi0sYZpcI9-43" value="Liste des livres" style="whiteSpace=wrap;html=1;aspect=fixed;fillColor=#d5e8d4;strokeColor=#82b366;" vertex="1" parent="1">
          <mxGeometry x="500" y="-690" width="80" height="80" as="geometry" />
        </mxCell>
        <mxCell id="jkE0oHId3iBi0sYZpcI9-46" value="Admin - Gestion des livres" style="rounded=0;whiteSpace=wrap;html=1;fillColor=#fff2cc;strokeColor=#d6b656;" vertex="1" parent="1">
          <mxGeometry x="419" y="-780" width="210" height="60" as="geometry" />
        </mxCell>
        <mxCell id="jkE0oHId3iBi0sYZpcI9-47" value="Admin - Gestion des membres" style="rounded=0;whiteSpace=wrap;html=1;fillColor=#fff2cc;strokeColor=#d6b656;" vertex="1" parent="1">
          <mxGeometry x="420" y="-480" width="210" height="60" as="geometry" />
        </mxCell>
        <mxCell id="jkE0oHId3iBi0sYZpcI9-55" style="edgeStyle=orthogonalEdgeStyle;rounded=0;orthogonalLoop=1;jettySize=auto;html=1;entryX=0.5;entryY=1;entryDx=0;entryDy=0;exitX=1;exitY=0.5;exitDx=0;exitDy=0;" edge="1" parent="1" source="jkE0oHId3iBi0sYZpcI9-50" target="jkE0oHId3iBi0sYZpcI9-43">
          <mxGeometry relative="1" as="geometry" />
        </mxCell>
        <mxCell id="jkE0oHId3iBi0sYZpcI9-50" value="Filtrer livres (empruntés, auteur...)" style="whiteSpace=wrap;html=1;aspect=fixed;fillColor=#cce5ff;strokeColor=#36393d;" vertex="1" parent="1">
          <mxGeometry x="440" y="-590" width="80" height="80" as="geometry" />
        </mxCell>
        <mxCell id="jkE0oHId3iBi0sYZpcI9-57" value="Informations membres consulté" style="whiteSpace=wrap;html=1;aspect=fixed;fillColor=#ffcc99;shadow=0;strokeColor=#36393d;" vertex="1" parent="1">
          <mxGeometry x="840" y="-400" width="80" height="80" as="geometry" />
        </mxCell>
        <mxCell id="jkE0oHId3iBi0sYZpcI9-58" value="" style="edgeStyle=orthogonalEdgeStyle;rounded=0;orthogonalLoop=1;jettySize=auto;html=1;" edge="1" parent="1" source="jkE0oHId3iBi0sYZpcI9-60" target="jkE0oHId3iBi0sYZpcI9-69">
          <mxGeometry relative="1" as="geometry" />
        </mxCell>
        <mxCell id="jkE0oHId3iBi0sYZpcI9-59" style="edgeStyle=orthogonalEdgeStyle;rounded=0;orthogonalLoop=1;jettySize=auto;html=1;entryX=0;entryY=0.5;entryDx=0;entryDy=0;" edge="1" parent="1" source="jkE0oHId3iBi0sYZpcI9-60" target="jkE0oHId3iBi0sYZpcI9-71">
          <mxGeometry relative="1" as="geometry">
            <Array as="points">
              <mxPoint x="425" y="-260" />
            </Array>
          </mxGeometry>
        </mxCell>
        <mxCell id="jkE0oHId3iBi0sYZpcI9-60" value="Rechercher un membre" style="whiteSpace=wrap;html=1;aspect=fixed;fillColor=#cce5ff;strokeColor=#36393d;" vertex="1" parent="1">
          <mxGeometry x="385" y="-400" width="80" height="80" as="geometry" />
        </mxCell>
        <mxCell id="jkE0oHId3iBi0sYZpcI9-61" value="" style="edgeStyle=orthogonalEdgeStyle;rounded=0;orthogonalLoop=1;jettySize=auto;html=1;" edge="1" parent="1" source="jkE0oHId3iBi0sYZpcI9-62" target="jkE0oHId3iBi0sYZpcI9-60">
          <mxGeometry relative="1" as="geometry" />
        </mxCell>
        <mxCell id="jkE0oHId3iBi0sYZpcI9-62" value="Etre connecté" style="whiteSpace=wrap;html=1;aspect=fixed;fillColor=#e6d0de;gradientColor=#d5739d;strokeColor=#996185;" vertex="1" parent="1">
          <mxGeometry x="260" y="-400" width="80" height="80" as="geometry" />
        </mxCell>
        <mxCell id="jkE0oHId3iBi0sYZpcI9-63" style="edgeStyle=orthogonalEdgeStyle;rounded=0;orthogonalLoop=1;jettySize=auto;html=1;entryX=0;entryY=0.5;entryDx=0;entryDy=0;" edge="1" parent="1" source="jkE0oHId3iBi0sYZpcI9-64" target="jkE0oHId3iBi0sYZpcI9-62">
          <mxGeometry relative="1" as="geometry" />
        </mxCell>
        <mxCell id="jkE0oHId3iBi0sYZpcI9-64" value="Liste des rubriques" style="whiteSpace=wrap;html=1;aspect=fixed;fillColor=#d5e8d4;strokeColor=#82b366;" vertex="1" parent="1">
          <mxGeometry x="120" y="-400" width="80" height="80" as="geometry" />
        </mxCell>
        <mxCell id="jkE0oHId3iBi0sYZpcI9-78" value="" style="edgeStyle=orthogonalEdgeStyle;rounded=0;orthogonalLoop=1;jettySize=auto;html=1;" edge="1" parent="1" source="jkE0oHId3iBi0sYZpcI9-66" target="jkE0oHId3iBi0sYZpcI9-76">
          <mxGeometry relative="1" as="geometry" />
        </mxCell>
        <mxCell id="jkE0oHId3iBi0sYZpcI9-66" value="Sélectionner un membre" style="whiteSpace=wrap;html=1;aspect=fixed;fillColor=#cce5ff;strokeColor=#36393d;" vertex="1" parent="1">
          <mxGeometry x="615" y="-400" width="80" height="80" as="geometry" />
        </mxCell>
        <mxCell id="jkE0oHId3iBi0sYZpcI9-67" value="Admin" style="whiteSpace=wrap;html=1;aspect=fixed;fillColor=#ffff88;strokeColor=#36393d;" vertex="1" parent="1">
          <mxGeometry x="230" y="-340" width="60" height="60" as="geometry" />
        </mxCell>
        <mxCell id="jkE0oHId3iBi0sYZpcI9-68" style="edgeStyle=orthogonalEdgeStyle;rounded=0;orthogonalLoop=1;jettySize=auto;html=1;entryX=0;entryY=0.5;entryDx=0;entryDy=0;" edge="1" parent="1" source="jkE0oHId3iBi0sYZpcI9-69" target="jkE0oHId3iBi0sYZpcI9-66">
          <mxGeometry relative="1" as="geometry" />
        </mxCell>
        <mxCell id="jkE0oHId3iBi0sYZpcI9-69" value="Liste des membres" style="whiteSpace=wrap;html=1;aspect=fixed;fillColor=#d5e8d4;strokeColor=#82b366;" vertex="1" parent="1">
          <mxGeometry x="500" y="-400" width="80" height="80" as="geometry" />
        </mxCell>
        <mxCell id="jkE0oHId3iBi0sYZpcI9-70" style="edgeStyle=orthogonalEdgeStyle;rounded=0;orthogonalLoop=1;jettySize=auto;html=1;entryX=0.5;entryY=1;entryDx=0;entryDy=0;exitX=1;exitY=0.5;exitDx=0;exitDy=0;" edge="1" parent="1" source="jkE0oHId3iBi0sYZpcI9-71" target="jkE0oHId3iBi0sYZpcI9-69">
          <mxGeometry relative="1" as="geometry" />
        </mxCell>
        <mxCell id="jkE0oHId3iBi0sYZpcI9-71" value="Filtrer membres (date, nom...)" style="whiteSpace=wrap;html=1;aspect=fixed;fillColor=#cce5ff;strokeColor=#36393d;" vertex="1" parent="1">
          <mxGeometry x="440" y="-300" width="80" height="80" as="geometry" />
        </mxCell>
        <mxCell id="jkE0oHId3iBi0sYZpcI9-75" value="" style="edgeStyle=orthogonalEdgeStyle;rounded=0;orthogonalLoop=1;jettySize=auto;html=1;" edge="1" parent="1" source="jkE0oHId3iBi0sYZpcI9-72" target="jkE0oHId3iBi0sYZpcI9-16">
          <mxGeometry relative="1" as="geometry" />
        </mxCell>
        <mxCell id="jkE0oHId3iBi0sYZpcI9-72" value="Fiche informative détails livre et emprunts" style="whiteSpace=wrap;html=1;aspect=fixed;fillColor=#d5e8d4;strokeColor=#82b366;" vertex="1" parent="1">
          <mxGeometry x="730" y="-690" width="80" height="80" as="geometry" />
        </mxCell>
        <mxCell id="jkE0oHId3iBi0sYZpcI9-77" value="" style="edgeStyle=orthogonalEdgeStyle;rounded=0;orthogonalLoop=1;jettySize=auto;html=1;" edge="1" parent="1" source="jkE0oHId3iBi0sYZpcI9-76" target="jkE0oHId3iBi0sYZpcI9-57">
          <mxGeometry relative="1" as="geometry" />
        </mxCell>
        <mxCell id="jkE0oHId3iBi0sYZpcI9-76" value="Fiche informative coordonnées membres et emprunts" style="whiteSpace=wrap;html=1;aspect=fixed;fillColor=#d5e8d4;strokeColor=#82b366;" vertex="1" parent="1">
          <mxGeometry x="730" y="-400" width="80" height="80" as="geometry" />
        </mxCell>
        <mxCell id="jkE0oHId3iBi0sYZpcI9-79" value="Membre - Emprunts" style="rounded=0;whiteSpace=wrap;html=1;fillColor=#fff2cc;strokeColor=#d6b656;" vertex="1" parent="1">
          <mxGeometry x="450" y="-180" width="210" height="60" as="geometry" />
        </mxCell>
        <mxCell id="jkE0oHId3iBi0sYZpcI9-80" value="Livre emprunté" style="whiteSpace=wrap;html=1;aspect=fixed;fillColor=#ffcc99;shadow=0;strokeColor=#36393d;" vertex="1" parent="1">
          <mxGeometry x="970" y="-100" width="80" height="80" as="geometry" />
        </mxCell>
        <mxCell id="jkE0oHId3iBi0sYZpcI9-81" value="" style="edgeStyle=orthogonalEdgeStyle;rounded=0;orthogonalLoop=1;jettySize=auto;html=1;" edge="1" parent="1" source="jkE0oHId3iBi0sYZpcI9-83" target="jkE0oHId3iBi0sYZpcI9-92">
          <mxGeometry relative="1" as="geometry" />
        </mxCell>
        <mxCell id="jkE0oHId3iBi0sYZpcI9-82" style="edgeStyle=orthogonalEdgeStyle;rounded=0;orthogonalLoop=1;jettySize=auto;html=1;entryX=0;entryY=0.5;entryDx=0;entryDy=0;" edge="1" parent="1" source="jkE0oHId3iBi0sYZpcI9-83" target="jkE0oHId3iBi0sYZpcI9-94">
          <mxGeometry relative="1" as="geometry">
            <Array as="points">
              <mxPoint x="345" y="40" />
            </Array>
          </mxGeometry>
        </mxCell>
        <mxCell id="jkE0oHId3iBi0sYZpcI9-83" value="Rechercher un livre" style="whiteSpace=wrap;html=1;aspect=fixed;fillColor=#cce5ff;strokeColor=#36393d;" vertex="1" parent="1">
          <mxGeometry x="305" y="-100" width="80" height="80" as="geometry" />
        </mxCell>
        <mxCell id="jkE0oHId3iBi0sYZpcI9-84" value="" style="edgeStyle=orthogonalEdgeStyle;rounded=0;orthogonalLoop=1;jettySize=auto;html=1;" edge="1" parent="1" source="jkE0oHId3iBi0sYZpcI9-85" target="jkE0oHId3iBi0sYZpcI9-83">
          <mxGeometry relative="1" as="geometry" />
        </mxCell>
        <mxCell id="jkE0oHId3iBi0sYZpcI9-85" value="Etre connecté" style="whiteSpace=wrap;html=1;aspect=fixed;fillColor=#e6d0de;gradientColor=#d5739d;strokeColor=#996185;" vertex="1" parent="1">
          <mxGeometry x="180" y="-100" width="80" height="80" as="geometry" />
        </mxCell>
        <mxCell id="jkE0oHId3iBi0sYZpcI9-86" style="edgeStyle=orthogonalEdgeStyle;rounded=0;orthogonalLoop=1;jettySize=auto;html=1;entryX=0;entryY=0.5;entryDx=0;entryDy=0;" edge="1" parent="1" source="jkE0oHId3iBi0sYZpcI9-87" target="jkE0oHId3iBi0sYZpcI9-85">
          <mxGeometry relative="1" as="geometry" />
        </mxCell>
        <mxCell id="jkE0oHId3iBi0sYZpcI9-87" value="Liste des rubriques" style="whiteSpace=wrap;html=1;aspect=fixed;fillColor=#d5e8d4;strokeColor=#82b366;" vertex="1" parent="1">
          <mxGeometry x="40" y="-100" width="80" height="80" as="geometry" />
        </mxCell>
        <mxCell id="jkE0oHId3iBi0sYZpcI9-88" value="" style="edgeStyle=orthogonalEdgeStyle;rounded=0;orthogonalLoop=1;jettySize=auto;html=1;" edge="1" parent="1" source="jkE0oHId3iBi0sYZpcI9-89" target="jkE0oHId3iBi0sYZpcI9-96">
          <mxGeometry relative="1" as="geometry" />
        </mxCell>
        <mxCell id="jkE0oHId3iBi0sYZpcI9-89" value="Sélectionner un livre" style="whiteSpace=wrap;html=1;aspect=fixed;fillColor=#cce5ff;strokeColor=#36393d;" vertex="1" parent="1">
          <mxGeometry x="535" y="-100" width="80" height="80" as="geometry" />
        </mxCell>
        <mxCell id="jkE0oHId3iBi0sYZpcI9-90" value="Membre" style="whiteSpace=wrap;html=1;aspect=fixed;fillColor=#ffff88;strokeColor=#36393d;" vertex="1" parent="1">
          <mxGeometry x="150" y="-40" width="60" height="60" as="geometry" />
        </mxCell>
        <mxCell id="jkE0oHId3iBi0sYZpcI9-91" style="edgeStyle=orthogonalEdgeStyle;rounded=0;orthogonalLoop=1;jettySize=auto;html=1;entryX=0;entryY=0.5;entryDx=0;entryDy=0;" edge="1" parent="1" source="jkE0oHId3iBi0sYZpcI9-92" target="jkE0oHId3iBi0sYZpcI9-89">
          <mxGeometry relative="1" as="geometry" />
        </mxCell>
        <mxCell id="jkE0oHId3iBi0sYZpcI9-92" value="Liste des livres" style="whiteSpace=wrap;html=1;aspect=fixed;fillColor=#d5e8d4;strokeColor=#82b366;" vertex="1" parent="1">
          <mxGeometry x="420" y="-100" width="80" height="80" as="geometry" />
        </mxCell>
        <mxCell id="jkE0oHId3iBi0sYZpcI9-93" style="edgeStyle=orthogonalEdgeStyle;rounded=0;orthogonalLoop=1;jettySize=auto;html=1;entryX=0.5;entryY=1;entryDx=0;entryDy=0;exitX=1;exitY=0.5;exitDx=0;exitDy=0;" edge="1" parent="1" source="jkE0oHId3iBi0sYZpcI9-94" target="jkE0oHId3iBi0sYZpcI9-92">
          <mxGeometry relative="1" as="geometry" />
        </mxCell>
        <mxCell id="jkE0oHId3iBi0sYZpcI9-94" value="Filtrer livre (date, catégorie...)" style="whiteSpace=wrap;html=1;aspect=fixed;fillColor=#cce5ff;strokeColor=#36393d;" vertex="1" parent="1">
          <mxGeometry x="360" width="80" height="80" as="geometry" />
        </mxCell>
        <mxCell id="jkE0oHId3iBi0sYZpcI9-98" value="" style="edgeStyle=orthogonalEdgeStyle;rounded=0;orthogonalLoop=1;jettySize=auto;html=1;" edge="1" parent="1" source="jkE0oHId3iBi0sYZpcI9-96" target="jkE0oHId3iBi0sYZpcI9-97">
          <mxGeometry relative="1" as="geometry" />
        </mxCell>
        <mxCell id="jkE0oHId3iBi0sYZpcI9-96" value="Fiche informative détails du livre" style="whiteSpace=wrap;html=1;aspect=fixed;fillColor=#d5e8d4;strokeColor=#82b366;" vertex="1" parent="1">
          <mxGeometry x="650" y="-100" width="80" height="80" as="geometry" />
        </mxCell>
        <mxCell id="jkE0oHId3iBi0sYZpcI9-100" value="" style="edgeStyle=orthogonalEdgeStyle;rounded=0;orthogonalLoop=1;jettySize=auto;html=1;" edge="1" parent="1" source="jkE0oHId3iBi0sYZpcI9-97" target="jkE0oHId3iBi0sYZpcI9-99">
          <mxGeometry relative="1" as="geometry" />
        </mxCell>
        <mxCell id="jkE0oHId3iBi0sYZpcI9-97" value="Vérifier la disponibilité" style="whiteSpace=wrap;html=1;aspect=fixed;fillColor=#cce5ff;strokeColor=#36393d;" vertex="1" parent="1">
          <mxGeometry x="760" y="-100" width="80" height="80" as="geometry" />
        </mxCell>
        <mxCell id="jkE0oHId3iBi0sYZpcI9-101" value="" style="edgeStyle=orthogonalEdgeStyle;rounded=0;orthogonalLoop=1;jettySize=auto;html=1;" edge="1" parent="1" source="jkE0oHId3iBi0sYZpcI9-99">
          <mxGeometry relative="1" as="geometry">
            <mxPoint x="980" y="-60" as="targetPoint" />
          </mxGeometry>
        </mxCell>
        <mxCell id="jkE0oHId3iBi0sYZpcI9-99" value="Emprunter le livre" style="whiteSpace=wrap;html=1;aspect=fixed;fillColor=#cce5ff;strokeColor=#36393d;" vertex="1" parent="1">
          <mxGeometry x="870" y="-100" width="80" height="80" as="geometry" />
        </mxCell>
        <mxCell id="jkE0oHId3iBi0sYZpcI9-102" value="Membre - Coordonées" style="rounded=0;whiteSpace=wrap;html=1;fillColor=#fff2cc;strokeColor=#d6b656;" vertex="1" parent="1">
          <mxGeometry x="460" y="100" width="210" height="60" as="geometry" />
        </mxCell>
        <mxCell id="jkE0oHId3iBi0sYZpcI9-103" value="Informations modifiées" style="whiteSpace=wrap;html=1;aspect=fixed;fillColor=#ffcc99;shadow=0;strokeColor=#36393d;" vertex="1" parent="1">
          <mxGeometry x="810" y="180" width="80" height="80" as="geometry" />
        </mxCell>
        <mxCell id="jkE0oHId3iBi0sYZpcI9-104" value="" style="edgeStyle=orthogonalEdgeStyle;rounded=0;orthogonalLoop=1;jettySize=auto;html=1;" edge="1" parent="1" source="jkE0oHId3iBi0sYZpcI9-106" target="jkE0oHId3iBi0sYZpcI9-115">
          <mxGeometry relative="1" as="geometry" />
        </mxCell>
        <mxCell id="jkE0oHId3iBi0sYZpcI9-106" value="Consulter profile" style="whiteSpace=wrap;html=1;aspect=fixed;fillColor=#cce5ff;strokeColor=#36393d;" vertex="1" parent="1">
          <mxGeometry x="465" y="180" width="80" height="80" as="geometry" />
        </mxCell>
        <mxCell id="jkE0oHId3iBi0sYZpcI9-107" value="" style="edgeStyle=orthogonalEdgeStyle;rounded=0;orthogonalLoop=1;jettySize=auto;html=1;" edge="1" parent="1" source="jkE0oHId3iBi0sYZpcI9-108" target="jkE0oHId3iBi0sYZpcI9-106">
          <mxGeometry relative="1" as="geometry" />
        </mxCell>
        <mxCell id="jkE0oHId3iBi0sYZpcI9-108" value="Etre connecté" style="whiteSpace=wrap;html=1;aspect=fixed;fillColor=#e6d0de;gradientColor=#d5739d;strokeColor=#996185;" vertex="1" parent="1">
          <mxGeometry x="340" y="180" width="80" height="80" as="geometry" />
        </mxCell>
        <mxCell id="jkE0oHId3iBi0sYZpcI9-109" style="edgeStyle=orthogonalEdgeStyle;rounded=0;orthogonalLoop=1;jettySize=auto;html=1;entryX=0;entryY=0.5;entryDx=0;entryDy=0;" edge="1" parent="1" source="jkE0oHId3iBi0sYZpcI9-110" target="jkE0oHId3iBi0sYZpcI9-108">
          <mxGeometry relative="1" as="geometry" />
        </mxCell>
        <mxCell id="jkE0oHId3iBi0sYZpcI9-110" value="Liste des rubriques" style="whiteSpace=wrap;html=1;aspect=fixed;fillColor=#d5e8d4;strokeColor=#82b366;" vertex="1" parent="1">
          <mxGeometry x="200" y="180" width="80" height="80" as="geometry" />
        </mxCell>
        <mxCell id="jkE0oHId3iBi0sYZpcI9-124" value="" style="edgeStyle=orthogonalEdgeStyle;rounded=0;orthogonalLoop=1;jettySize=auto;html=1;" edge="1" parent="1" source="jkE0oHId3iBi0sYZpcI9-112" target="jkE0oHId3iBi0sYZpcI9-103">
          <mxGeometry relative="1" as="geometry" />
        </mxCell>
        <mxCell id="jkE0oHId3iBi0sYZpcI9-112" value="Modifier les informations" style="whiteSpace=wrap;html=1;aspect=fixed;fillColor=#cce5ff;strokeColor=#36393d;" vertex="1" parent="1">
          <mxGeometry x="695" y="180" width="80" height="80" as="geometry" />
        </mxCell>
        <mxCell id="jkE0oHId3iBi0sYZpcI9-113" value="Membre" style="whiteSpace=wrap;html=1;aspect=fixed;fillColor=#ffff88;strokeColor=#36393d;" vertex="1" parent="1">
          <mxGeometry x="310" y="240" width="60" height="60" as="geometry" />
        </mxCell>
        <mxCell id="jkE0oHId3iBi0sYZpcI9-114" style="edgeStyle=orthogonalEdgeStyle;rounded=0;orthogonalLoop=1;jettySize=auto;html=1;entryX=0;entryY=0.5;entryDx=0;entryDy=0;" edge="1" parent="1" source="jkE0oHId3iBi0sYZpcI9-115" target="jkE0oHId3iBi0sYZpcI9-112">
          <mxGeometry relative="1" as="geometry" />
        </mxCell>
        <mxCell id="jkE0oHId3iBi0sYZpcI9-115" value="Informations du profile" style="whiteSpace=wrap;html=1;aspect=fixed;fillColor=#d5e8d4;strokeColor=#82b366;" vertex="1" parent="1">
          <mxGeometry x="580" y="180" width="80" height="80" as="geometry" />
        </mxCell>
      </root>
    </mxGraphModel>
  </diagram>
</mxfile>
